<svg width="376" height="163" viewBox="0 0 376 163" fill="none" xmlns="http://www.w3.org/2000/svg">
<g filter="url(#filter0_d_113_1094)">
<path d="M127.52 76C76.1241 76 8 76.4679 8 76.4679V154H368V76.4679C368 76.4679 298.889 76 245.12 76C219.2 76 212.96 109.628 188 109.628C163.04 109.628 154.88 76 127.52 76Z" fill="white"/>
</g>
<g filter="url(#filter1_d_113_1094)">
<ellipse cx="188" cy="71.7881" rx="26.7692" ry="26.7881" fill="#F4402F"/>
<path d="M188 99.7846C203.452 99.7846 215.978 87.2494 215.978 71.7881C215.978 56.3269 203.452 43.7917 188 43.7917C172.548 43.7917 160.022 56.3269 160.022 71.7881C160.022 87.2494 172.548 99.7846 188 99.7846Z" stroke="white" stroke-width="2.41667"/>
</g>
<defs>
<filter id="filter0_d_113_1094" x="0" y="66" width="376" height="94" filterUnits="userSpaceOnUse" color-interpolation-filters="sRGB">
<feFlood flood-opacity="0" result="BackgroundImageFix"/>
<feColorMatrix in="SourceAlpha" type="matrix" values="0 0 0 0 0 0 0 0 0 0 0 0 0 0 0 0 0 0 127 0" result="hardAlpha"/>
<feOffset dy="-2"/>
<feGaussianBlur stdDeviation="4"/>
<feComposite in2="hardAlpha" operator="out"/>
<feColorMatrix type="matrix" values="0 0 0 0 0.0352941 0 0 0 0 0 0 0 0 0 0.364706 0 0 0 0.06 0"/>
<feBlend mode="normal" in2="BackgroundImageFix" result="effect1_dropShadow_113_1094"/>
<feBlend mode="normal" in="SourceGraphic" in2="effect1_dropShadow_113_1094" result="shape"/>
</filter>
<filter id="filter1_d_113_1094" x="106.814" y="0.583313" width="162.372" height="162.41" filterUnits="userSpaceOnUse" color-interpolation-filters="sRGB">
<feFlood flood-opacity="0" result="BackgroundImageFix"/>
<feColorMatrix in="SourceAlpha" type="matrix" values="0 0 0 0 0 0 0 0 0 0 0 0 0 0 0 0 0 0 127 0" result="hardAlpha"/>
<feOffset dy="10"/>
<feGaussianBlur stdDeviation="26"/>
<feComposite in2="hardAlpha" operator="out"/>
<feColorMatrix type="matrix" values="0 0 0 0 0.290196 0 0 0 0 0.333333 0 0 0 0 0.407843 0 0 0 0.25 0"/>
<feBlend mode="normal" in2="BackgroundImageFix" result="effect1_dropShadow_113_1094"/>
<feBlend mode="normal" in="SourceGraphic" in2="effect1_dropShadow_113_1094" result="shape"/>
</filter>
</defs>
</svg>
