<svg width="322" height="165" viewBox="0 0 322 165" fill="none" xmlns="http://www.w3.org/2000/svg">
<mask id="mask0_113_704" style="mask-type:alpha" maskUnits="userSpaceOnUse" x="0" y="0" width="322" height="165">
<rect width="322" height="165" rx="24" fill="#37474F"/>
</mask>
<g mask="url(#mask0_113_704)">
<rect width="322" height="165" rx="24" fill="#4B5458"/>
<path d="M256.009 81.7379C262.346 70.0023 279.468 79.5125 273.122 91.2673C266.776 103.022 249.674 93.5159 256.009 81.7379Z" fill="#FFC727"/>
<path opacity="0.1" d="M256.009 81.7379C262.346 70.0023 279.468 79.5125 273.122 91.2673C266.776 103.022 249.674 93.5159 256.009 81.7379Z" fill="black"/>
<path d="M255.429 82.8413C261.466 71.6578 278.593 81.1691 272.543 92.3706C266.492 103.572 249.384 94.0439 255.429 82.8413Z" fill="#FFC727"/>
<path opacity="0.1" d="M261.917 95.2996C265.185 96.3435 268.961 95.4987 271.087 91.56C276.105 82.2658 261.895 74.3718 256.885 83.6518L256.791 83.8373C261.68 75.1982 275.104 82.7328 270.322 91.5927C269.573 93.1147 268.32 94.3204 266.783 94.9982C265.247 95.6761 263.524 95.7828 261.917 95.2996Z" fill="black"/>
<g opacity="0.1">
<path opacity="0.1" d="M258.655 84.6472C258.702 84.5727 258.776 84.5202 258.861 84.5012C258.946 84.4822 259.035 84.4982 259.109 84.5457L259.566 84.8434C260.098 84.1238 260.831 83.5829 261.67 83.2907C261.726 83.2614 261.789 83.2471 261.853 83.2491C261.917 83.2511 261.979 83.2693 262.034 83.3021C262.072 83.3276 262.104 83.3604 262.129 83.3987C262.154 83.4369 262.172 83.4799 262.181 83.525C262.19 83.5702 262.189 83.6167 262.181 83.6618C262.172 83.7069 262.154 83.7498 262.129 83.788C262.107 83.8282 262.077 83.863 262.04 83.8899C262.003 83.9169 261.962 83.9354 261.917 83.9441C261.197 84.1755 260.559 84.6133 260.078 85.2047L263.28 87.2838C264.755 85.7548 265.877 85.4331 267.002 86.1658C268.217 86.9379 268.419 88.5519 267.555 90.027L268.447 90.6073C268.483 90.6309 268.514 90.6614 268.538 90.6971C268.563 90.7328 268.58 90.7731 268.589 90.8156C268.598 90.8581 268.599 90.902 268.591 90.9448C268.583 90.9876 268.568 91.0285 268.544 91.0651C268.521 91.1016 268.491 91.1332 268.456 91.158C268.421 91.1828 268.381 91.2004 268.339 91.2096C268.298 91.2188 268.254 91.2196 268.212 91.2119C268.17 91.2041 268.13 91.188 268.094 91.1645L267.178 90.5741C266.493 91.5002 265.524 92.1678 264.423 92.4711C264.371 92.4918 264.315 92.5 264.26 92.495C264.204 92.4901 264.151 92.4721 264.103 92.4426C264.03 92.3914 263.978 92.3135 263.959 92.2248C263.94 92.136 263.955 92.0433 264.002 91.9657C264.024 91.926 264.054 91.8915 264.091 91.8646C264.127 91.8377 264.169 91.819 264.213 91.8096C265.19 91.5794 266.061 91.0171 266.681 90.2158L263.419 88.0984C261.94 89.6002 260.856 89.9088 259.713 89.167C258.569 88.4252 258.318 86.8222 259.174 85.3875L258.74 85.1049C258.671 85.054 258.624 84.9783 258.608 84.8932C258.592 84.8081 258.609 84.7201 258.655 84.6472ZM262.847 87.725L259.722 85.6984C259.037 86.8379 259.233 88.0155 260.056 88.5504C260.88 89.0853 261.548 88.9961 262.847 87.725ZM263.891 87.6704L267.028 89.7151C267.735 88.5383 267.547 87.3517 266.678 86.7865C265.886 86.2738 265.149 86.37 263.866 87.6653L263.891 87.6704Z" fill="black"/>
</g>
<path d="M301.806 106.48C311.666 107.474 310.231 122.306 300.356 121.309C290.481 120.312 291.932 105.483 301.806 106.48Z" fill="#FFC727"/>
<path opacity="0.1" d="M301.806 106.48C311.666 107.474 310.231 122.306 300.356 121.309C290.481 120.312 291.932 105.483 301.806 106.48Z" fill="black"/>
<path d="M300.88 106.385C310.28 107.332 308.844 122.164 299.43 121.215C290.015 120.265 291.471 105.437 300.88 106.385Z" fill="#FFC727"/>
<path opacity="0.1" d="M294.308 114.613C294.392 116 294.973 117.307 295.941 118.288C296.909 119.27 298.197 119.858 299.563 119.942C307.372 120.732 308.553 108.417 300.768 107.631C300.719 107.621 300.669 107.611 300.619 107.601C307.944 108.492 306.766 120.142 299.32 119.394C298.065 119.321 296.875 118.803 295.958 117.928C295.042 117.054 294.458 115.881 294.308 114.613Z" fill="black"/>
<g opacity="0.1">
<path opacity="0.1" d="M300.605 109.187C300.669 109.198 300.726 109.235 300.764 109.289C300.801 109.342 300.817 109.409 300.807 109.474L300.727 109.877C301.373 110.042 301.957 110.398 302.404 110.901C302.441 110.931 302.471 110.97 302.489 111.015C302.507 111.06 302.514 111.109 302.508 111.158C302.502 111.192 302.489 111.225 302.47 111.254C302.451 111.283 302.427 111.308 302.399 111.328C302.37 111.348 302.338 111.361 302.305 111.368C302.271 111.375 302.236 111.375 302.203 111.368C302.169 111.365 302.136 111.354 302.107 111.337C302.077 111.32 302.052 111.298 302.031 111.27C301.664 110.829 301.176 110.507 300.629 110.345L300.16 113.211C301.634 113.8 302.183 114.494 302.017 115.493C301.838 116.579 300.819 117.194 299.552 117.019L299.419 117.821C299.406 117.887 299.367 117.946 299.312 117.984C299.256 118.022 299.187 118.035 299.122 118.022C299.056 118.008 298.998 117.969 298.961 117.912C298.923 117.856 298.91 117.786 298.923 117.719L299.083 116.913C298.249 116.708 297.508 116.222 296.98 115.535C296.95 115.506 296.927 115.47 296.913 115.43C296.899 115.39 296.896 115.347 296.902 115.304C296.915 115.238 296.953 115.178 297.008 115.139C297.063 115.099 297.13 115.082 297.197 115.092C297.231 115.097 297.263 115.109 297.293 115.126C297.322 115.144 297.347 115.167 297.368 115.195C297.813 115.814 298.453 116.261 299.182 116.461L299.661 113.545C298.229 112.954 297.676 112.28 297.847 111.256C298.019 110.232 299.035 109.585 300.264 109.762L300.34 109.379C300.353 109.319 300.387 109.266 300.436 109.231C300.485 109.195 300.545 109.18 300.605 109.187ZM299.741 113.037L300.2 110.242C299.223 110.095 298.482 110.578 298.356 111.318C298.231 112.058 298.494 112.499 299.741 113.037ZM300.083 113.735L299.617 116.561C300.62 116.708 301.381 116.228 301.509 115.452C301.636 114.676 301.343 114.255 300.079 113.756L300.083 113.735Z" fill="black"/>
</g>
<path d="M185.88 117.362C186.52 127.359 201.124 126.421 200.462 116.404C199.8 106.387 185.237 107.349 185.88 117.362Z" fill="#FFC727"/>
<path opacity="0.1" d="M185.88 117.362C186.52 127.359 201.124 126.421 200.462 116.404C199.8 106.387 185.237 107.349 185.88 117.362Z" fill="black"/>
<path d="M185.818 116.422C186.427 125.951 200.991 125.005 200.403 115.448C199.815 105.892 185.211 106.882 185.818 116.422Z" fill="#FFC727"/>
<path opacity="0.1" d="M194.779 121.882C196.114 121.604 197.302 120.839 198.119 119.731C198.935 118.623 199.324 117.25 199.21 115.871C198.863 107.936 186.728 108.502 187.098 116.421L187.104 116.574C186.926 109.119 198.4 108.633 198.733 116.193C198.836 117.462 198.497 118.727 197.774 119.767C197.051 120.807 195.991 121.556 194.779 121.882Z" fill="black"/>
<g opacity="0.1">
<path opacity="0.1" d="M188.608 116.356C188.612 116.291 188.64 116.229 188.688 116.184C188.735 116.139 188.798 116.114 188.862 116.115L189.268 116.124C189.331 115.453 189.593 114.817 190.021 114.301C190.045 114.259 190.079 114.224 190.12 114.199C190.161 114.175 190.208 114.161 190.255 114.16C190.325 114.164 190.389 114.195 190.436 114.246C190.483 114.298 190.508 114.366 190.505 114.436C190.506 114.471 190.5 114.505 190.486 114.537C190.473 114.568 190.453 114.597 190.428 114.62C190.055 115.053 189.813 115.586 189.732 116.156L192.581 116.212C192.941 114.65 193.534 114 194.531 114.025C195.61 114.051 196.355 114.984 196.367 116.277L197.159 116.297C197.227 116.299 197.291 116.328 197.338 116.378C197.384 116.429 197.41 116.496 197.407 116.565C197.405 116.634 197.376 116.699 197.327 116.747C197.277 116.794 197.211 116.82 197.143 116.818L196.341 116.801C196.256 117.663 195.89 118.472 195.303 119.1C195.278 119.135 195.246 119.163 195.208 119.182C195.17 119.201 195.128 119.21 195.086 119.208C195.02 119.203 194.958 119.173 194.912 119.124C194.866 119.075 194.84 119.01 194.839 118.943C194.84 118.874 194.868 118.808 194.916 118.759C195.468 118.227 195.82 117.517 195.912 116.75L193.014 116.683C192.648 118.223 192.069 118.85 191.042 118.824C190.015 118.798 189.239 117.89 189.227 116.619L188.837 116.607C188.775 116.603 188.717 116.574 188.674 116.528C188.632 116.481 188.608 116.42 188.608 116.356ZM192.469 116.672L189.69 116.629C189.688 117.63 190.259 118.318 190.997 118.322C191.734 118.325 192.125 117.996 192.469 116.672ZM193.074 116.224L195.883 116.272C195.889 115.225 195.314 114.557 194.538 114.535C193.763 114.514 193.424 114.895 193.099 116.229L193.074 116.224Z" fill="black"/>
</g>
<path d="M267.473 149.21C274.308 156.413 284.833 146.134 277.979 138.922C271.124 131.71 260.613 141.997 267.473 149.21Z" fill="#FFC727"/>
<path opacity="0.1" d="M267.473 149.21C274.308 156.413 284.833 146.134 277.979 138.922C271.124 131.71 260.613 141.997 267.473 149.21Z" fill="black"/>
<path d="M266.832 148.534C273.352 155.4 283.867 145.119 277.338 138.246C270.809 131.373 260.303 141.661 266.832 148.534Z" fill="#FFC727"/>
<path opacity="0.1" d="M277.134 146.823C277.975 145.736 278.395 144.372 278.313 142.991C278.231 141.61 277.654 140.308 276.69 139.33C271.379 133.529 262.504 141.885 267.808 147.695L267.915 147.806C263.038 142.24 271.475 134.345 276.538 139.892C277.422 140.793 277.966 141.98 278.075 143.248C278.184 144.515 277.851 145.78 277.134 146.823Z" fill="black"/>
<g opacity="0.1">
<path opacity="0.1" d="M268.918 146.653C268.879 146.602 268.86 146.537 268.867 146.473C268.874 146.409 268.906 146.35 268.955 146.309L269.27 146.048C268.894 145.492 268.69 144.836 268.683 144.162C268.675 144.114 268.679 144.065 268.695 144.02C268.711 143.974 268.739 143.934 268.775 143.903C268.802 143.882 268.833 143.866 268.865 143.857C268.898 143.848 268.932 143.846 268.966 143.85C269 143.855 269.032 143.866 269.062 143.883C269.091 143.9 269.117 143.923 269.137 143.95C269.161 143.975 269.179 144.005 269.189 144.038C269.2 144.071 269.203 144.106 269.198 144.141C269.189 144.714 269.345 145.278 269.646 145.763L271.859 143.944C271.14 142.518 271.18 141.635 271.951 141.001C272.722 140.366 273.952 140.539 274.781 141.515L275.398 141.007C275.449 140.966 275.513 140.946 275.578 140.954C275.642 140.961 275.701 140.994 275.742 141.045C275.782 141.097 275.801 141.162 275.794 141.228C275.787 141.293 275.754 141.353 275.704 141.394L275.086 141.908C275.57 142.62 275.806 143.476 275.756 144.341C275.761 144.396 275.749 144.451 275.721 144.499C275.693 144.547 275.65 144.584 275.6 144.605C275.549 144.626 275.493 144.629 275.44 144.615C275.387 144.601 275.34 144.57 275.306 144.527C275.284 144.501 275.267 144.47 275.257 144.438C275.247 144.405 275.243 144.37 275.246 144.336C275.318 143.578 275.131 142.818 274.716 142.183L272.467 144.031C273.166 145.453 273.127 146.305 272.337 146.957C271.548 147.608 270.37 147.405 269.563 146.443L269.266 146.692C269.215 146.734 269.149 146.753 269.084 146.746C269.019 146.738 268.959 146.705 268.918 146.653ZM272.06 144.363L269.903 146.135C270.537 146.899 271.407 147.04 271.977 146.558C272.547 146.077 272.637 145.597 272.06 144.363ZM272.259 143.617L274.442 141.823C273.782 141.034 272.913 140.888 272.308 141.388C271.703 141.889 271.657 142.383 272.259 143.617Z" fill="black"/>
</g>
<path d="M277.435 108.147C268.024 106.92 262.916 120.091 253.506 118.859C253.554 116.667 253.575 114.4 253.571 112.057C260.722 111.371 265.47 102.63 272.453 101.359C274.071 103.466 275.731 105.724 277.435 108.147Z" fill="#95A3AA"/>
<path d="M267.083 108.076C267.638 109.237 266.742 111.183 265.104 112.548C263.467 113.912 261.843 113.849 261.496 112.52C261.15 111.191 262.059 109.258 263.481 108.07C264.903 106.881 266.523 106.887 267.083 108.076Z" fill="#4B5458"/>
<path d="M259.564 113.625C259.556 113.843 259.486 114.054 259.364 114.233C259.241 114.413 259.071 114.553 258.873 114.638C258.424 114.871 258.019 114.778 257.975 114.454C257.995 114.243 258.071 114.041 258.196 113.87C258.32 113.7 258.489 113.567 258.682 113.487C259.113 113.266 259.503 113.308 259.564 113.625Z" fill="#4B5458"/>
<path d="M270.497 105.721C270.657 105.979 270.422 106.361 269.976 106.605C269.53 106.85 269.062 106.865 268.918 106.604C268.773 106.344 268.992 105.917 269.42 105.658C269.848 105.399 270.332 105.456 270.497 105.721Z" fill="#4B5458"/>
<path d="M254.216 111.953C254.28 114.346 254.323 116.674 254.348 118.936C254.072 118.922 253.788 118.896 253.506 118.859C253.554 116.667 253.575 114.4 253.571 112.057C253.79 112.018 254.002 111.988 254.216 111.953Z" fill="#4B5458"/>
<path d="M277.435 108.147C277.157 108.091 276.87 108.084 276.593 108.075C274.963 105.74 273.357 103.551 271.826 101.478C272.033 101.425 272.243 101.379 272.457 101.339C274.071 103.466 275.731 105.724 277.435 108.147Z" fill="#4B5458"/>
<path d="M277.112 107.693C277.222 107.842 277.326 107.994 277.435 108.147C268.024 106.92 262.916 120.091 253.506 118.859L253.51 118.446C262.77 119.522 267.873 106.664 277.112 107.693Z" fill="#4B5458"/>
<path d="M272.457 101.339C272.56 101.475 272.663 101.606 272.76 101.742C265.642 102.911 260.861 111.897 253.575 112.477L253.575 112.037C260.726 111.351 265.474 102.61 272.457 101.339Z" fill="#4B5458"/>
<path d="M256.102 118.392C255.521 118.484 254.933 118.522 254.345 118.506L254.332 117.554C255.298 117.552 256.063 117.834 256.102 118.392Z" fill="#4B5458"/>
<path d="M275.611 106.669L276.289 107.625C275.7 107.611 275.11 107.654 274.529 107.754C274.191 107.271 274.649 106.704 275.611 106.669Z" fill="#4B5458"/>
<path d="M270.746 102.29C271.195 102.119 271.654 101.978 272.121 101.868L272.772 102.751C271.958 102.899 271.073 102.755 270.746 102.29Z" fill="#4B5458"/>
<path d="M254.251 113.396L254.23 112.401C254.704 112.329 255.172 112.223 255.63 112.084C255.675 112.643 255.075 113.297 254.251 113.396Z" fill="#4B5458"/>
<path d="M263.717 108.574C263.789 108.521 263.863 108.515 263.879 108.565L263.936 108.718C264.248 108.471 264.609 108.295 264.994 108.2C265.053 108.186 265.089 108.188 265.103 108.222C265.107 108.263 265.1 108.304 265.081 108.34C265.063 108.376 265.035 108.406 265 108.427C264.971 108.455 264.935 108.475 264.896 108.484C264.569 108.552 264.261 108.694 263.994 108.898L264.39 109.975C265.278 109.401 265.726 109.324 265.881 109.691C266.035 110.059 265.665 110.785 264.925 111.394L265.036 111.695C265.057 111.741 265.008 111.836 264.933 111.899C264.859 111.963 264.774 111.972 264.758 111.926L264.649 111.616C264.234 111.955 263.746 112.188 263.224 112.295C263.179 112.286 263.144 112.279 263.129 112.276C263.129 112.234 263.14 112.192 263.16 112.155C263.18 112.118 263.209 112.086 263.244 112.063C263.274 112.034 263.312 112.014 263.353 112.007C263.807 111.932 264.235 111.739 264.594 111.447L264.197 110.349C263.318 110.904 262.904 110.961 262.777 110.584C262.651 110.207 263.028 109.498 263.674 108.948L263.619 108.806C263.605 108.724 263.648 108.633 263.717 108.574ZM264.13 110.142L263.75 109.084C263.239 109.504 262.964 110.03 263.058 110.311C263.153 110.593 263.377 110.607 264.13 110.142ZM264.459 110.172L264.853 111.233C265.424 110.752 265.713 110.229 265.594 109.942C265.475 109.656 265.227 109.684 264.461 110.162L264.459 110.172Z" fill="#455A64"/>
<path d="M220.788 102.714C212.287 98.7151 209.006 108.856 200.478 104.863C201.46 103.533 202.196 102.033 202.649 100.435C208.316 100.286 211.744 94.1221 218.654 97.2666L220.788 102.714Z" fill="#95A3AA"/>
<path d="M212.702 99.7226C212.855 100.802 211.871 102.148 210.533 102.856C209.196 103.563 208.12 103.103 208.138 101.917C208.2 101.242 208.425 100.593 208.793 100.028C209.162 99.4626 209.662 98.9987 210.25 98.6773C211.429 98.0896 212.559 98.6449 212.702 99.7226Z" fill="#4B5458"/>
<path d="M206.625 102.442C206.585 102.61 206.5 102.765 206.38 102.887C206.259 103.01 206.107 103.096 205.94 103.136C205.579 103.24 205.304 103.09 205.339 102.835C205.393 102.674 205.484 102.529 205.606 102.413C205.728 102.297 205.877 102.213 206.038 102.17C206.386 102.057 206.643 102.167 206.625 102.442Z" fill="#4B5458"/>
<path d="M215.691 99.0163C215.748 99.2482 215.473 99.4385 215.083 99.4795C214.693 99.5205 214.352 99.3932 214.306 99.1533C214.261 98.9133 214.51 98.6706 214.89 98.6276C215.047 98.5981 215.209 98.6198 215.353 98.6896C215.497 98.7595 215.615 98.8738 215.691 99.0163Z" fill="#4B5458"/>
<path d="M203.158 100.392C202.743 102.07 202.098 103.681 201.242 105.176C200.993 105.078 200.736 104.968 200.481 104.848C201.463 103.518 202.199 102.018 202.652 100.42C202.823 100.418 202.995 100.406 203.158 100.392Z" fill="#4B5458"/>
<path d="M220.788 102.714C220.528 102.593 220.276 102.484 220.026 102.391L218.035 97.0041C218.242 97.0829 218.446 97.1717 218.654 97.2666L220.788 102.714Z" fill="#4B5458"/>
<path d="M220.655 102.372L220.788 102.714C212.287 98.7151 209.006 108.856 200.478 104.863L200.643 104.655C208.945 108.278 212.231 98.4208 220.655 102.372Z" fill="#4B5458"/>
<path d="M218.654 97.2666L218.788 97.6085C211.795 94.4155 208.353 100.776 202.537 100.764L202.652 100.42C208.316 100.286 211.744 94.1222 218.654 97.2666Z" fill="#4B5458"/>
<path d="M202.932 105.348C202.405 105.254 201.887 105.117 201.382 104.937C201.489 104.76 201.594 104.572 201.689 104.376C202.531 104.611 203.056 104.98 202.932 105.348Z" fill="#4B5458"/>
<path d="M219.617 101.301L219.893 102.049C219.383 101.848 218.858 101.694 218.322 101.587C218.201 101.18 218.745 100.96 219.617 101.301Z" fill="#4B5458"/>
<path d="M216.866 96.9386C217.316 97.0435 217.758 97.1809 218.189 97.3499L218.464 98.0981C217.662 97.793 216.974 97.3328 216.866 96.9386Z" fill="#4B5458"/>
<path d="M202.829 101.51L203.062 100.75C203.433 100.723 203.803 100.674 204.169 100.604C204.073 100.883 203.891 101.122 203.649 101.285C203.407 101.449 203.119 101.528 202.829 101.51Z" fill="#4B5458"/>
<path d="M210.328 99.1703C210.379 99.1441 210.433 99.1603 210.437 99.1926L210.45 99.3367C210.7 99.2172 210.98 99.174 211.254 99.2124C211.299 99.2215 211.323 99.2265 211.326 99.2638C211.324 99.2951 211.313 99.325 211.294 99.35C211.275 99.375 211.25 99.394 211.221 99.4049C211.195 99.4185 211.165 99.4234 211.136 99.4189C210.905 99.3833 210.668 99.4131 210.453 99.5051L210.527 100.511C211.228 100.282 211.545 100.352 211.585 100.695C211.626 101.039 211.229 101.53 210.639 101.85L210.661 102.132C210.658 102.164 210.646 102.194 210.627 102.22C210.609 102.246 210.584 102.266 210.555 102.278C210.492 102.307 210.438 102.296 210.436 102.254L210.415 101.967C210.086 102.139 209.712 102.206 209.345 102.157C209.31 102.15 209.29 102.146 209.287 102.109C209.294 102.076 209.308 102.046 209.327 102.019C209.347 101.992 209.372 101.97 209.401 101.954C209.427 101.94 209.457 101.936 209.486 101.94C209.802 101.993 210.126 101.943 210.412 101.798L210.338 100.766C209.656 100.999 209.369 100.941 209.345 100.564C209.386 100.314 209.489 100.078 209.643 99.8799C209.798 99.6813 210 99.5259 210.23 99.4283L210.222 99.2902C210.212 99.262 210.27 99.2005 210.328 99.1703ZM210.326 100.591L210.257 99.6067C210.081 99.6742 209.925 99.7873 209.805 99.9349C209.686 100.083 209.606 100.259 209.574 100.448C209.586 100.702 209.736 100.78 210.326 100.591ZM210.539 100.713L210.616 101.709C211.083 101.458 211.371 101.103 211.346 100.835C211.321 100.568 211.141 100.516 210.539 100.713Z" fill="#455A64"/>
<path d="M273.442 137.557C264.942 133.553 261.661 143.694 253.132 139.706C254.114 138.378 254.849 136.879 255.302 135.283C260.971 135.124 264.41 128.983 271.305 132.125L273.442 137.557Z" fill="#95A3AA"/>
<path d="M265.371 134.569C265.524 135.648 264.541 136.989 263.203 137.697C261.866 138.404 260.79 137.944 260.808 136.757C260.869 136.083 261.093 135.434 261.461 134.869C261.828 134.304 262.328 133.839 262.915 133.517C264.083 132.932 265.214 133.483 265.371 134.569Z" fill="#4B5458"/>
<path d="M259.28 137.279C259.241 137.448 259.156 137.603 259.035 137.726C258.914 137.848 258.762 137.934 258.595 137.973C258.234 138.078 257.959 137.928 257.994 137.672C258.048 137.513 258.14 137.369 258.262 137.254C258.384 137.139 258.532 137.056 258.692 137.013C259.041 136.895 259.303 137.006 259.28 137.279Z" fill="#4B5458"/>
<path d="M268.346 133.854C268.403 134.086 268.128 134.276 267.737 134.322C267.346 134.368 267.007 134.231 266.961 133.991C266.916 133.751 267.165 133.508 267.544 133.47C267.701 133.439 267.863 133.459 268.008 133.528C268.152 133.597 268.271 133.711 268.346 133.854Z" fill="#4B5458"/>
<path d="M255.818 135.231C255.402 136.909 254.755 138.519 253.897 140.014C253.648 139.916 253.419 139.817 253.136 139.686C254.118 138.358 254.853 136.859 255.306 135.263C255.478 135.256 255.649 135.249 255.818 135.231Z" fill="#4B5458"/>
<path d="M273.442 137.557C273.188 137.431 272.93 137.326 272.681 137.228L270.695 131.843C270.897 131.921 271.101 132.01 271.309 132.105L273.442 137.557Z" fill="#4B5458"/>
<path d="M273.31 137.21L273.442 137.557C264.942 133.553 261.661 143.694 253.132 139.706L253.296 139.503C261.607 143.133 264.891 133.26 273.31 137.21Z" fill="#4B5458"/>
<path d="M271.309 132.105L271.443 132.446C264.45 129.253 261.008 135.614 255.192 135.602L255.306 135.263C260.975 135.103 264.414 128.963 271.309 132.105Z" fill="#4B5458"/>
<path d="M255.587 140.186C255.061 140.095 254.544 139.958 254.042 139.776C254.144 139.598 254.249 139.409 254.349 139.215C255.186 139.448 255.713 139.808 255.587 140.186Z" fill="#4B5458"/>
<path d="M272.282 136.14L272.557 136.889C272.047 136.69 271.522 136.536 270.986 136.427C270.861 136.018 271.405 135.799 272.282 136.14Z" fill="#4B5458"/>
<path d="M269.496 131.772C269.946 131.876 270.388 132.014 270.819 132.183L271.094 132.931C270.317 132.631 269.626 132.186 269.496 131.772Z" fill="#4B5458"/>
<path d="M255.488 136.354L255.717 135.588C256.089 135.566 256.459 135.517 256.824 135.442C256.728 135.72 256.546 135.959 256.305 136.123C256.064 136.288 255.778 136.369 255.488 136.354Z" fill="#4B5458"/>
<path d="M262.982 134.013C263.039 133.983 263.088 133.998 263.091 134.035L263.104 134.18C263.355 134.063 263.634 134.02 263.908 134.055C263.953 134.064 263.977 134.069 263.98 134.107C263.978 134.138 263.967 134.168 263.948 134.193C263.929 134.218 263.904 134.237 263.875 134.248C263.849 134.263 263.819 134.268 263.79 134.262C263.558 134.226 263.322 134.256 263.107 134.348L263.186 135.355C263.882 135.125 264.204 135.196 264.239 135.538C264.275 135.881 263.883 136.373 263.293 136.693L263.315 136.975C263.312 137.007 263.3 137.037 263.281 137.063C263.263 137.088 263.238 137.109 263.209 137.121C263.146 137.15 263.092 137.139 263.09 137.097L263.069 136.81C262.739 136.982 262.366 137.05 261.998 137.005C261.963 136.998 261.943 136.994 261.941 136.952C261.948 136.92 261.961 136.89 261.98 136.864C262 136.838 262.025 136.816 262.054 136.802C262.079 136.786 262.11 136.779 262.14 136.783C262.456 136.836 262.78 136.786 263.066 136.641L262.996 135.61C262.31 135.842 262.023 135.784 262.004 135.408C262.044 135.158 262.146 134.923 262.301 134.726C262.456 134.528 262.658 134.373 262.888 134.277L262.879 134.139C262.885 134.111 262.897 134.085 262.915 134.063C262.933 134.041 262.956 134.024 262.982 134.013ZM262.98 135.434L262.912 134.445C262.736 134.515 262.581 134.629 262.462 134.777C262.342 134.925 262.262 135.102 262.228 135.291C262.246 135.541 262.391 135.618 262.98 135.434ZM263.194 135.551L263.271 136.547C263.738 136.296 264.025 135.945 264.006 135.648C263.987 135.351 263.796 135.354 263.194 135.551Z" fill="#455A64"/>
<path d="M327.367 116.631C315.451 115.905 316.232 129.448 304.329 128.709C304.877 127.033 305.012 124.885 304.88 122.447C311.508 119.604 312.779 110.699 322.371 111.166C324.031 112.99 325.696 114.812 327.367 116.631Z" fill="#95A3AA"/>
<path d="M316.452 116.901C317.121 118.086 316.577 120.156 315.337 121.622C314.097 123.089 312.593 123.05 312.056 121.64C311.816 120.812 311.784 119.936 311.961 119.092C312.138 118.247 312.518 117.461 313.069 116.803C314.177 115.582 315.767 115.691 316.452 116.901Z" fill="#4B5458"/>
<path d="M310.485 122.976C310.514 123.195 310.484 123.418 310.396 123.62C310.309 123.823 310.168 123.997 309.99 124.123C309.607 124.417 309.219 124.369 309.142 124.05C309.133 123.835 309.176 123.622 309.267 123.428C309.358 123.235 309.496 123.067 309.666 122.94C310.02 122.64 310.385 122.647 310.485 122.976Z" fill="#4B5458"/>
<path d="M319.643 114.652C319.821 114.898 319.58 115.258 319.142 115.488C318.704 115.719 318.242 115.73 318.072 115.469C317.901 115.209 318.097 114.793 318.522 114.576C318.693 114.467 318.893 114.416 319.095 114.429C319.296 114.443 319.488 114.521 319.643 114.652Z" fill="#4B5458"/>
<path d="M305.447 122.19C305.722 124.371 305.692 126.58 305.358 128.751C305.013 128.755 304.67 128.748 304.33 128.73C304.878 127.055 305.012 124.912 304.881 122.468C305.059 122.378 305.258 122.288 305.447 122.19Z" fill="#4B5458"/>
<path d="M327.367 116.631C327.005 116.604 326.656 116.596 326.339 116.605L321.523 111.172C321.799 111.172 322.081 111.177 322.372 111.188C324.031 112.997 325.696 114.812 327.367 116.631Z" fill="#4B5458"/>
<path d="M327.052 116.289C327.159 116.4 327.261 116.515 327.367 116.631C315.451 115.905 316.232 129.448 304.329 128.709L304.429 128.384C315.905 128.8 315.282 115.582 327.052 116.289Z" fill="#4B5458"/>
<path d="M322.352 111.184L322.667 111.526C312.952 111.049 311.763 120.196 304.88 122.919L304.861 122.464C311.502 119.608 312.745 110.713 322.352 111.184Z" fill="#4B5458"/>
<path d="M307.442 128.159C306.776 128.297 306.101 128.379 305.422 128.403C305.474 128.141 305.521 127.899 305.53 127.596C306.627 127.474 307.418 127.651 307.442 128.159Z" fill="#4B5458"/>
<path d="M320.051 111.648C320.632 111.56 321.219 111.515 321.807 111.513L322.473 112.267C321.418 112.278 320.401 112.07 320.051 111.648Z" fill="#4B5458"/>
<path d="M305.568 123.667L305.49 122.655C305.921 122.453 306.338 122.221 306.737 121.96C306.751 122.335 306.645 122.704 306.434 123.012C306.223 123.32 305.919 123.55 305.568 123.667Z" fill="#4B5458"/>
<path d="M313.365 117.367C313.424 117.305 313.486 117.303 313.512 117.355L313.592 117.523C313.838 117.265 314.149 117.081 314.492 116.994C314.537 117.003 314.571 117.01 314.601 117.016C314.614 117.054 314.616 117.094 314.609 117.133C314.601 117.172 314.583 117.208 314.557 117.238C314.535 117.268 314.501 117.287 314.464 117.292C314.174 117.36 313.907 117.507 313.693 117.717L314.243 118.878C314.968 118.27 315.378 118.207 315.575 118.593C315.772 118.98 315.537 119.75 314.99 120.403L315.142 120.728C315.155 120.767 315.157 120.808 315.149 120.847C315.141 120.887 315.123 120.924 315.098 120.955C315.038 121.021 314.968 121.033 314.943 120.981L314.786 120.65C314.474 121.007 314.064 121.261 313.609 121.38C313.57 121.372 313.54 121.366 313.52 121.362C313.508 121.322 313.506 121.279 313.514 121.238C313.522 121.196 313.54 121.158 313.567 121.125C313.59 121.094 313.623 121.073 313.661 121.066C314.058 120.979 314.417 120.768 314.689 120.463L314.134 119.275C313.428 119.87 313.063 119.937 312.88 119.507C312.697 119.076 312.907 118.327 313.409 117.748L313.331 117.591C313.316 117.554 313.311 117.513 313.317 117.474C313.323 117.434 313.34 117.397 313.365 117.367ZM314.019 119.047L313.489 117.89C313.314 118.055 313.183 118.264 313.111 118.495C313.038 118.726 313.025 118.973 313.073 119.21C313.192 119.523 313.404 119.545 314.019 119.047ZM314.322 119.109L314.862 120.267C315.305 119.749 315.481 119.198 315.325 118.889C315.17 118.579 314.949 118.571 314.326 119.088L314.322 119.109Z" fill="#455A64"/>
<path d="M279.119 131.17C288.898 136.2 289.469 148.484 299.248 153.514C296.254 154.735 293.344 155.901 290.518 157.013C283.772 151.968 282.029 142.978 275.388 137.849C276.708 135.559 277.959 133.33 279.119 131.17Z" fill="#95A3AA"/>
<path d="M284.11 141.567C285.208 140.48 287.098 141.128 288.255 143.11C289.412 145.091 289.395 147.29 288.147 148.12C286.899 148.951 285.016 148.289 284.001 146.583C282.986 144.877 283.024 142.646 284.11 141.567Z" fill="#4B5458"/>
<path d="M289.432 150.291C289.735 150.117 290.258 150.344 290.618 150.79C290.979 151.235 291.036 151.708 290.717 151.858C290.491 151.915 290.253 151.899 290.035 151.815C289.818 151.73 289.631 151.58 289.499 151.384C289.163 150.97 289.144 150.468 289.432 150.291Z" fill="#4B5458"/>
<path d="M281.265 138.019C281.484 137.744 281.976 137.871 282.333 138.311C282.69 138.75 282.779 139.345 282.545 139.612C282.312 139.879 281.851 139.728 281.508 139.296C281.165 138.864 281.045 138.294 281.265 138.019Z" fill="#4B5458"/>
<path d="M289.919 156.545C292.692 155.419 295.515 154.247 298.389 153.029C298.666 153.196 298.955 153.355 299.25 153.504C296.256 154.725 293.347 155.891 290.525 157.004C290.318 156.852 290.12 156.706 289.919 156.545Z" fill="#4B5458"/>
<path d="M279.119 131.17C279.415 131.325 279.704 131.483 279.985 131.646C278.716 133.833 277.381 136.06 275.98 138.326C275.785 138.16 275.59 138 275.388 137.848C276.708 135.559 277.959 133.329 279.119 131.17Z" fill="#4B5458"/>
<path d="M278.898 131.581L279.119 131.17C288.898 136.2 289.469 148.484 299.248 153.514L298.686 153.745C289.122 148.697 288.45 136.638 278.898 131.581Z" fill="#4B5458"/>
<path d="M275.373 137.845L275.623 137.414C282.432 142.562 284.149 151.735 291.044 156.811L290.486 157.022C283.765 151.977 282.029 142.978 275.373 137.845Z" fill="#4B5458"/>
<path d="M296.134 152.087C296.68 152.513 297.25 152.908 297.841 153.269L296.647 153.77C295.694 153.161 295.522 152.361 296.134 152.087Z" fill="#4B5458"/>
<path d="M279.207 132.971L279.749 132.033C280.34 132.392 280.911 132.786 281.456 133.214C281.108 133.746 280.154 133.583 279.207 132.971Z" fill="#4B5458"/>
<path d="M277.492 139.033C277.094 138.642 276.679 138.264 276.239 137.902L276.816 136.971C277.584 137.552 277.848 138.513 277.492 139.033Z" fill="#4B5458"/>
<path d="M291.604 155.856L290.442 156.353C289.996 156 289.574 155.652 289.176 155.24C289.785 154.95 290.827 155.268 291.604 155.856Z" fill="#4B5458"/>
<path d="M284.5 146.124C284.449 146.04 284.449 145.935 284.498 145.898L284.641 145.775C284.415 145.358 284.271 144.902 284.215 144.43C284.205 144.349 284.205 144.297 284.247 144.269C284.289 144.24 284.382 144.265 284.436 144.354C284.463 144.395 284.479 144.441 284.482 144.49C284.524 144.896 284.64 145.291 284.824 145.655L285.843 144.814C285.36 143.704 285.298 143.13 285.649 142.793C285.999 142.456 286.675 142.824 287.198 143.675L287.482 143.44C287.531 143.402 287.611 143.466 287.67 143.535C287.728 143.605 287.728 143.736 287.68 143.773L287.391 144.008C287.703 144.569 287.897 145.191 287.959 145.833C287.966 145.856 287.968 145.881 287.963 145.905C287.958 145.928 287.948 145.951 287.932 145.969C287.88 146 287.788 145.94 287.731 145.865C287.703 145.823 287.688 145.775 287.686 145.725C287.646 145.166 287.488 144.622 287.222 144.131L286.179 144.967C286.65 146.059 286.689 146.643 286.312 146.902C285.936 147.161 285.291 146.846 284.829 146.075L284.693 146.189C284.628 146.255 284.561 146.204 284.5 146.124ZM285.977 145.125L284.969 145.968C285.366 146.573 285.832 146.825 286.085 146.615C286.339 146.404 286.371 146.086 285.977 145.125ZM286.029 144.653L287.037 143.81C286.62 143.127 286.145 142.868 285.871 143.106C285.597 143.343 285.614 143.698 286.029 144.653Z" fill="#455A64"/>
<path d="M235.497 112.812C238.891 123.114 222.863 135.924 227.25 146.114C223.728 144.667 220.378 142.82 217.265 140.607C219.263 131.578 229.211 121.549 225.626 113.284C228.931 113.126 232.221 112.968 235.497 112.812Z" fill="#95A3AA"/>
<path d="M229.494 123.75C231.066 124.102 231.296 126.487 229.896 129.075C228.497 131.663 226.415 133.209 225.087 132.514C223.758 131.818 223.697 129.41 224.841 127.148C225.986 124.886 227.943 123.392 229.494 123.75Z" fill="#4B5458"/>
<path d="M223.546 135.345C223.855 135.529 223.892 136.207 223.63 136.851C223.368 137.495 222.957 137.852 222.631 137.649C222.304 137.446 222.234 136.782 222.499 136.149C222.763 135.516 223.247 135.158 223.546 135.345Z" fill="#4B5458"/>
<path d="M230.911 118.592C231.312 118.627 231.547 119.162 231.385 119.795C231.224 120.428 230.752 120.909 230.37 120.857C229.988 120.805 229.839 120.256 229.976 119.639C230.114 119.022 230.514 118.564 230.911 118.592Z" fill="#4B5458"/>
<path d="M217.469 139.789C220.418 141.921 223.582 143.73 226.907 145.184C227.016 145.494 227.14 145.797 227.28 146.094C223.757 144.648 220.407 142.801 217.295 140.587C217.324 140.336 217.394 140.062 217.469 139.789Z" fill="#4B5458"/>
<path d="M235.497 112.812C235.602 113.121 235.688 113.436 235.755 113.755C232.495 113.846 229.215 113.94 225.916 114.04C225.832 113.783 225.735 113.531 225.626 113.284C228.931 113.126 232.221 112.968 235.497 112.812Z" fill="#4B5458"/>
<path d="M234.888 112.84C235.091 112.829 235.299 112.824 235.502 112.813C238.896 123.115 222.868 135.925 227.255 146.115C226.997 146.01 226.74 145.9 226.489 145.786C222.673 135.66 238.296 123.018 234.888 112.84Z" fill="#4B5458"/>
<path d="M225.626 113.284L226.252 113.254C229.83 121.659 219.525 131.867 217.777 140.968C217.605 140.849 217.432 140.73 217.265 140.607C219.258 131.603 229.208 121.564 225.626 113.284Z" fill="#4B5458"/>
<path d="M225.874 142.761C225.898 143.469 225.999 144.172 226.177 144.857C225.656 144.62 225.152 144.375 224.663 144.134C224.514 143.008 225.158 142.384 225.874 142.761Z" fill="#4B5458"/>
<path d="M233.777 113.808L235.142 113.772C235.293 114.462 235.37 115.167 235.372 115.874C234.635 115.865 234.047 114.922 233.777 113.808Z" fill="#4B5458"/>
<path d="M226.924 115.756C226.848 115.166 226.719 114.586 226.539 114.02C226.996 114.009 227.453 113.992 227.91 113.98C228.207 114.958 227.665 115.765 226.924 115.756Z" fill="#4B5458"/>
<path d="M219.084 140.915C218.696 140.658 218.324 140.398 217.953 140.16C218.105 139.548 218.289 138.93 218.505 138.307C219.063 138.693 219.263 139.877 219.084 140.915Z" fill="#4B5458"/>
<path d="M225.483 127.378C225.54 127.269 225.633 127.194 225.69 127.216C225.748 127.238 225.809 127.24 225.869 127.279C226.15 126.761 226.506 126.289 226.925 125.879C226.995 125.815 227.043 125.778 227.087 125.792C227.13 125.806 227.152 125.931 227.098 126.051C227.071 126.106 227.033 126.156 226.986 126.196C226.623 126.539 226.311 126.934 226.062 127.37L227.289 127.825C228.122 126.537 228.646 126.052 229.099 126.191C229.551 126.331 229.512 127.261 228.922 128.415C229.041 128.439 229.153 128.499 229.264 128.542C229.374 128.586 229.313 128.683 229.252 128.807C229.192 128.931 229.088 129.01 229.031 128.988L228.686 128.854C228.295 129.563 227.79 130.201 227.192 130.741C227.131 130.792 227.09 130.815 227.051 130.802C227.013 130.788 227.001 130.639 227.064 130.526C227.091 130.469 227.129 130.418 227.177 130.376C227.708 129.92 228.157 129.373 228.503 128.759C228.09 128.602 227.677 128.444 227.266 128.282C226.432 129.548 225.895 129.989 225.489 129.801C225.082 129.614 225.135 128.717 225.65 127.68C225.595 127.668 225.536 127.656 225.481 127.645C225.427 127.634 225.429 127.467 225.483 127.378ZM227.04 128.22L225.851 127.757C225.44 128.586 225.394 129.237 225.702 129.373C226.011 129.509 226.325 129.254 227.048 128.18L227.04 128.22ZM227.51 127.933C227.91 128.078 228.313 128.233 228.712 128.383C229.183 127.462 229.224 126.783 228.884 126.677C228.543 126.571 228.239 126.781 227.518 127.893L227.51 127.933Z" fill="#455A64"/>
<path d="M297.136 127.174C297.136 127.174 298.936 106.823 320.411 103.611C320.413 103.601 316.857 123.699 297.136 127.174Z" fill="#4B5458"/>
<path d="M270.295 100.867C270.295 100.867 261.079 82.6986 277.514 68.2986C277.521 68.2633 285.115 87.1912 270.295 100.867Z" fill="#4B5458"/>
<path d="M211.703 131.871C211.703 131.871 215.362 115.642 233.045 115.447C233.045 115.447 227.996 131.272 211.703 131.871Z" fill="#4B5458"/>
<path d="M297.056 127.399C297.056 127.399 283.584 117.207 290.701 100.352C290.701 100.352 303.191 111.67 297.056 127.399Z" fill="#95A3AA"/>
<path d="M218.062 99.7147C218.062 99.7147 202.742 92.8107 206.014 74.7513C206.014 74.7513 220.656 82.9955 218.062 99.7147Z" fill="#95A3AA"/>
<path d="M226.246 106.39C226.246 106.39 219.167 97.4182 226.652 87.5998C226.65 87.6099 232.916 97.176 226.246 106.39Z" fill="#4B5458"/>
<path d="M261.722 144.535C261.722 144.535 264.911 133.5 277.118 134.112C277.142 134.117 272.964 144.804 261.722 144.535Z" fill="#4B5458"/>
<path d="M276.868 163.519C276.868 163.519 266.055 149.566 277.739 134.522C277.739 134.522 287.289 149.377 276.868 163.519Z" fill="#4B5458"/>
<path d="M238.53 89.849C238.53 89.849 254.144 81.8504 266.343 96.4695C266.343 96.4695 250.108 103.041 238.53 89.849Z" fill="#4B5458"/>
<path d="M278.147 106.19C282.497 113.559 288.404 119.854 295.442 124.622C296.513 125.312 297.149 125.646 297.149 125.646L297.253 125.62C297.27 125.625 297.289 125.629 297.307 125.631C321.134 120.529 335.533 121.411 345.195 123.459L343.549 131.784C335.071 128.656 311.755 128.095 302.094 130.351C294.65 132.099 286.163 135.207 277.883 134.756L277.577 134.74C277.337 134.728 277.097 134.711 276.858 134.694C275.643 134.61 274.425 134.491 273.207 134.337C264.766 133.329 256.659 130.395 249.494 125.753C241.985 120.861 237.53 117.546 232.989 115.603C232.87 115.553 232.751 115.502 232.636 115.458C225.667 112.584 218.306 112.918 199.293 115.736C196.517 116.145 196.584 115.236 198.511 114.26C200.438 113.285 221.616 109.389 227.171 109.546C227.171 109.546 220.96 103.776 218 99.6864C217.012 98.3157 216.389 97.1298 216.479 96.4142C216.814 93.8611 217.086 94.4409 218.364 96.2009C218.523 96.4168 218.693 96.6558 218.886 96.905C220.634 99.1807 222.522 101.341 224.54 103.374C225.277 104.111 226.035 104.848 226.806 105.566C239.488 117.432 256.618 125.47 266.196 128.278C283.407 133.293 292.37 127.361 292.37 127.361C292.37 127.361 281.124 116.071 276.87 109.337C272.615 102.603 265.22 97.1844 257.405 98.7205C255.332 99.1262 254.74 98.7013 255.181 98.0626C256.034 96.8052 260.869 94.7032 266.278 96.4302C267.24 96.7378 268.168 97.1467 269.047 97.6501C269.977 98.1835 270.853 98.8099 271.661 99.52C272.114 99.9197 272.548 100.342 272.959 100.786C272.959 100.786 272.967 99.5715 273.137 97.8237C273.525 93.8241 274.754 87.0339 278.642 85.6509L278.874 85.5725C283.894 83.9172 270.641 93.2936 278.147 106.19Z" fill="#FFC727"/>
<g opacity="0.4">
<path opacity="0.4" d="M278.147 106.19C282.497 113.559 288.404 119.854 295.442 124.622C296.513 125.312 297.149 125.646 297.149 125.646L297.253 125.62C297.27 125.625 297.289 125.629 297.307 125.631C321.134 120.529 335.533 121.411 345.195 123.459L343.549 131.784C335.071 128.656 311.755 128.095 302.094 130.351C294.65 132.099 286.163 135.207 277.883 134.756L277.577 134.74C277.337 134.728 277.097 134.711 276.858 134.694C275.643 134.61 274.425 134.491 273.207 134.337C264.766 133.329 256.659 130.395 249.494 125.753C241.985 120.861 237.53 117.546 232.989 115.603C232.87 115.553 232.751 115.502 232.636 115.458C225.667 112.584 218.306 112.918 199.293 115.736C196.517 116.145 196.584 115.236 198.511 114.26C200.438 113.285 221.616 109.389 227.171 109.546C227.171 109.546 220.96 103.776 218 99.6864C217.012 98.3157 216.389 97.1298 216.479 96.4142C216.814 93.8611 217.086 94.4409 218.364 96.2009C218.523 96.4168 218.693 96.6558 218.886 96.905C220.634 99.1807 222.522 101.341 224.54 103.374C225.277 104.111 226.035 104.848 226.806 105.566C239.488 117.432 256.618 125.47 266.196 128.278C283.407 133.293 292.37 127.361 292.37 127.361C292.37 127.361 281.124 116.071 276.87 109.337C272.615 102.603 265.22 97.1844 257.405 98.7205C255.332 99.1262 254.74 98.7013 255.181 98.0626C256.034 96.8052 260.869 94.7032 266.278 96.4302C267.24 96.7378 268.168 97.1467 269.047 97.6501C269.977 98.1835 270.853 98.8099 271.661 99.52C272.114 99.9197 272.548 100.342 272.959 100.786C272.959 100.786 272.967 99.5715 273.137 97.8237C273.525 93.8241 274.754 87.0339 278.642 85.6509L278.874 85.5725C283.894 83.9172 270.641 93.2936 278.147 106.19Z" fill="black"/>
</g>
</g>
</svg>
