<svg width="16" height="16" viewBox="0 0 16 16" fill="none" xmlns="http://www.w3.org/2000/svg">
<path d="M15.2 8.176C15.2 7.68 15.152 7.168 15.072 6.688H8.14404V9.52H12.112C11.952 10.432 11.424 11.232 10.64 11.744L13.008 13.584C14.4 12.288 15.2 10.4 15.2 8.176Z" fill="#282260"/>
<path d="M8.14405 15.344C10.128 15.344 11.792 14.688 13.008 13.568L10.64 11.744C9.98405 12.192 9.13604 12.448 8.14405 12.448C6.22405 12.448 4.60804 11.152 4.01604 9.424L1.58405 11.296C2.83205 13.776 5.36005 15.344 8.14405 15.344Z" fill="#34A353"/>
<path d="M4.01602 9.408C3.71202 8.496 3.71202 7.504 4.01602 6.592L1.58402 4.704C0.544016 6.784 0.544016 9.232 1.58402 11.296L4.01602 9.408Z" fill="#F6B704"/>
<path d="M8.14405 3.568C9.18405 3.552 10.208 3.952 10.96 4.672L13.056 2.56C11.728 1.312 9.96805 0.640003 8.14405 0.656003C5.36005 0.656003 2.83205 2.224 1.58405 4.704L4.01604 6.592C4.60804 4.848 6.22405 3.568 8.14405 3.568Z" fill="#E54335"/>
</svg>
