<svg width="23" height="23" viewBox="0 0 23 23" fill="none" xmlns="http://www.w3.org/2000/svg">
<g clip-path="url(#clip0_39_1907)">
<rect width="22.1538" height="22.1695" transform="translate(0.461548)" fill="white"/>
<path d="M19.7098 7.09783V9.41212H13.4133C12.4958 9.41212 11.7415 10.1674 11.7415 11.0847V13.899C11.7415 14.8164 12.4958 15.5717 13.4133 15.5717H19.7098V17.886C19.7098 18.008 19.6278 18.0895 19.5067 18.0895H3.57026C3.44912 18.0895 3.36718 18.008 3.36718 17.886V6.85268C3.50876 6.87983 3.65498 6.89425 3.80462 6.89425H3.80506C7.40585 6.89105 11.2891 6.89222 14.8343 6.89328C16.4861 6.89378 18.0644 6.89425 19.5067 6.89425C19.6278 6.89425 19.7098 6.97574 19.7098 7.09783ZM19.5067 4.95615H18.8349V3.11091V3.11086C18.8348 2.5895 18.3881 2.14191 17.8662 2.14186H17.8662H3.80462C2.49758 2.14186 1.42975 3.21095 1.42975 4.51806V17.886C1.42975 19.0631 2.39305 20.0276 3.57026 20.0276H19.5067C20.6839 20.0276 21.6472 19.0631 21.6472 17.886V7.09783C21.6472 5.92064 20.6839 4.95615 19.5067 4.95615ZM16.6311 11.3502H19.7098V13.6336H16.6311C16.9736 13.3706 17.1944 12.957 17.1944 12.4919C17.1944 12.0268 16.9736 11.6131 16.6311 11.3502ZM14.3195 12.4919C14.3195 12.957 14.5402 13.3706 14.8827 13.6336H13.679V11.3502H14.8827C14.5402 11.6131 14.3195 12.0268 14.3195 12.4919ZM3.80462 4.07996H16.8974V4.95615H3.80462C3.55365 4.95615 3.36718 4.77007 3.36718 4.51806C3.36718 4.26605 3.55365 4.07996 3.80462 4.07996Z" fill="#282260" stroke="#282260"/>
</g>
<defs>
<clipPath id="clip0_39_1907">
<rect width="22.1538" height="22.1695" fill="white" transform="translate(0.461548)"/>
</clipPath>
</defs>
</svg>
