<svg width="23" height="23" viewBox="0 0 23 23" fill="none" xmlns="http://www.w3.org/2000/svg">
<path d="M20.1867 7.21648V9.93077H13.4902C12.7939 9.93077 12.2184 10.5067 12.2184 11.2034V14.0177C12.2184 14.7144 12.7939 15.2903 13.4902 15.2903H20.1867V18.0046C20.1867 18.3473 19.9259 18.6082 19.5836 18.6082H3.64717C3.30485 18.6082 3.04409 18.3473 3.04409 18.0046V6.42219C3.29831 6.54312 3.58223 6.61291 3.88152 6.61291L3.88161 6.61291C7.48262 6.60971 11.3663 6.61087 14.9116 6.61194C16.5633 6.61243 18.1416 6.61291 19.5836 6.61291C19.9259 6.61291 20.1867 6.87375 20.1867 7.21648ZM13.49 11.0689H13.4902H20.1867V14.1522H13.4902C13.4452 14.1522 13.4129 14.1369 13.3921 14.116C13.3712 14.0952 13.3559 14.0628 13.3559 14.0177V11.2034C13.3559 11.1582 13.3712 11.1258 13.3921 11.1049C13.4129 11.0841 13.4452 11.0688 13.49 11.0689ZM3.88152 2.66051C2.79566 2.66051 1.90665 3.55025 1.90665 4.63671V18.0046C1.90665 18.9611 2.69114 19.7463 3.64717 19.7463H19.5836C20.5396 19.7463 21.3241 18.9611 21.3241 18.0046V7.21648C21.3241 6.25995 20.5396 5.47481 19.5836 5.47481H18.5118V3.22956C18.5118 2.9288 18.2438 2.66054 17.9431 2.66051H3.88152ZM3.88152 3.79861H17.3743V5.47481H3.88152C3.40937 5.47481 3.04409 5.10937 3.04409 4.63671C3.04409 4.16405 3.40937 3.79861 3.88152 3.79861ZM15.8338 11.5724C15.2608 11.5724 14.7964 12.0373 14.7964 12.6105C14.7964 13.1838 15.2608 13.6486 15.8338 13.6486C16.4068 13.6486 16.8713 13.1838 16.8713 12.6105C16.8713 12.0373 16.4069 11.5724 15.8338 11.5724Z" fill="#B3B3B3" stroke="#B3B3B3" stroke-width="0.2"/>
</svg>
