<svg width="23" height="23" viewBox="0 0 23 23" fill="none" xmlns="http://www.w3.org/2000/svg">
<path d="M18.6923 19.3983V17.5508C18.6923 16.5709 18.3033 15.6311 17.6108 14.9381C16.9184 14.2452 15.9792 13.8559 15 13.8559H7.61534C6.63608 13.8559 5.69693 14.2452 5.00449 14.9381C4.31204 15.6311 3.92303 16.5709 3.92303 17.5508V19.3983" fill="#282260"/>
<path d="M18.6923 19.3983V17.5508C18.6923 16.5709 18.3033 15.6311 17.6108 14.9381C16.9184 14.2452 15.9792 13.8559 15 13.8559H7.61534C6.63608 13.8559 5.69693 14.2452 5.00449 14.9381C4.31204 15.6311 3.92303 16.5709 3.92303 17.5508V19.3983" stroke="#282260" stroke-width="1.5" stroke-linecap="round" stroke-linejoin="round"/>
<path d="M11.3077 10.161C13.3469 10.161 15 8.50674 15 6.46609C15 4.42545 13.3469 2.77118 11.3077 2.77118C9.26846 2.77118 7.61536 4.42545 7.61536 6.46609C7.61536 8.50674 9.26846 10.161 11.3077 10.161Z" fill="#282260" stroke="#282260" stroke-width="1.5" stroke-linecap="round" stroke-linejoin="round"/>
</svg>
