<svg width="23" height="23" viewBox="0 0 23 23" fill="none" xmlns="http://www.w3.org/2000/svg">
<path d="M18.3077 3.81357H5.38467C4.36506 3.81357 3.53851 4.6407 3.53851 5.66103V18.5932C3.53851 19.6136 4.36506 20.4407 5.38467 20.4407H18.3077C19.3273 20.4407 20.1539 19.6136 20.1539 18.5932V5.66103C20.1539 4.6407 19.3273 3.81357 18.3077 3.81357Z" fill="#282260"/>
<path d="M18.3077 3.81357H5.38467C4.36506 3.81357 3.53851 4.6407 3.53851 5.66103V18.5932C3.53851 19.6136 4.36506 20.4407 5.38467 20.4407H18.3077C19.3273 20.4407 20.1539 19.6136 20.1539 18.5932V5.66103C20.1539 4.6407 19.3273 3.81357 18.3077 3.81357Z" stroke="#282260" stroke-width="1.5" stroke-linecap="round" stroke-linejoin="round"/>
<path d="M18.3077 3.81357H5.38467C4.36506 3.81357 3.53851 4.6407 3.53851 5.66103V18.5932C3.53851 19.6136 4.36506 20.4407 5.38467 20.4407H18.3077C19.3273 20.4407 20.1539 19.6136 20.1539 18.5932V5.66103C20.1539 4.6407 19.3273 3.81357 18.3077 3.81357Z" stroke="white" stroke-width="1.5" stroke-linecap="round" stroke-linejoin="round"/>
<path d="M15.5385 1.96611V5.66103" stroke="#B3B3B3" stroke-width="1.5" stroke-linecap="round" stroke-linejoin="round"/>
<path d="M8.1539 1.96611V5.66103" stroke="#B3B3B3" stroke-width="1.5" stroke-linecap="round" stroke-linejoin="round"/>
<path d="M3.53851 9.35594H20.1539" stroke="white" stroke-width="1.5" stroke-linecap="round" stroke-linejoin="round"/>
</svg>
