<svg width="40" height="38" viewBox="0 0 40 38" fill="none" xmlns="http://www.w3.org/2000/svg">
<rect width="39.1772" height="38" rx="19" fill="#282260"/>
<path d="M8.57002 9.025V28.975C8.57002 29.164 8.64741 29.3452 8.78517 29.4788C8.92293 29.6124 9.10977 29.6875 9.30459 29.6875H29.8726C30.0674 29.6875 30.2543 29.6124 30.392 29.4788C30.5298 29.3452 30.6072 29.164 30.6072 28.975V9.025C30.6072 8.83603 30.5298 8.65481 30.392 8.52119C30.2543 8.38757 30.0674 8.3125 29.8726 8.3125H9.30459C9.10977 8.3125 8.92293 8.38757 8.78517 8.52119C8.64741 8.65481 8.57002 8.83603 8.57002 9.025V9.025Z" stroke="white" stroke-width="1.5" stroke-linecap="round" stroke-linejoin="round"/>
<path d="M12.2429 11.875V23.75" stroke="white" stroke-width="1.5" stroke-linecap="round" stroke-linejoin="round"/>
<path d="M17.14 11.875V15.4375" stroke="white" stroke-width="1.5" stroke-linecap="round" stroke-linejoin="round"/>
<path d="M22.0372 11.875V20.1875" stroke="white" stroke-width="1.5" stroke-linecap="round" stroke-linejoin="round"/>
<path d="M26.9343 11.875V17.8125" stroke="white" stroke-width="1.5" stroke-linecap="round" stroke-linejoin="round"/>
</svg>
